<svg width="192" height="192" viewBox="0 0 192 192" fill="none" xmlns="http://www.w3.org/2000/svg">
  <path d="M48 48H16V56H33.76L51.2 135.04C52.48 141.12 58.08 144 64 144H152C157.92 144 163.52 141.12 164.8 135.04L182.24 56H192V48H171.2L154.4 13.12C152.32 4.16 144.48 0 136 0H32C23.52 0 15.68 4.16 13.6 13.12L0 48H48ZM64 160C55.2 160 48 167.2 48 176C48 184.8 55.2 192 64 192C72.8 192 80 184.8 80 176C80 167.2 72.8 160 64 160ZM128 160C119.2 160 112 167.2 112 176C112 184.8 119.2 192 128 192C136.8 192 144 184.8 144 176C144 167.2 136.8 160 128 160Z" fill="#2D3748"/>
</svg>